<?xml version="1.0" encoding="UTF-8"?>
<svg id="Layer_1" data-name="Layer 1" xmlns="http://www.w3.org/2000/svg" viewBox="0 0 500 500">
  <defs>
    <style>
      .cls-1 {
        fill: #fff;
      }

      .cls-2 {
        fill: #231f20;
      }

      .cls-3 {
        fill: #393939;
      }
    </style>
  </defs>
  <path class="cls-1" d="M209.04,171.88c0-14.46-11.77-26.23-26.23-26.23-10.04,0-18.77,5.67-23.18,13.98l35.44,35.44c8.3-4.41,13.98-13.14,13.98-23.18Z"/>
  <path class="cls-1" d="M427.61,335.12l-88.01-88.01-46.25,46.25,125.74,125.74c5.25-5.25,8.51-12.51,8.51-20.51v-63.48Z"/>
  <path class="cls-1" d="M427.61,312.38V101.4c0-16-13.02-29.01-29.01-29.01H101.4c-8,0-15.25,3.25-20.51,8.51l67.05,67.05c7.64-11.09,20.41-18.37,34.86-18.37,23.33,0,42.31,18.98,42.31,42.31,0,14.45-7.29,27.23-18.37,34.86l75.25,75.25,57.62-57.62,88.01,88.01Z"/>
  <path class="cls-1" d="M0,0l69.53,69.53c8.17-8.17,19.44-13.22,31.87-13.22h297.2c24.86,0,45.09,20.23,45.09,45.09v297.2c0,12.43-5.06,23.7-13.22,31.87l69.53,69.53V0H0Z"/>
  <path class="cls-1" d="M156.58,171.88c0,14.46,11.77,26.23,26.23,26.23,4.43,0,8.6-1.11,12.26-3.05l-35.44-35.44c-1.94,3.66-3.05,7.83-3.05,12.26Z"/>
  <path class="cls-3" d="M101.4,427.61h232.12l-136.22-136.22-121.27,121.27c4.96,8.91,14.47,14.95,25.37,14.95Z"/>
  <path class="cls-3" d="M257.69,329.04l97.68,97.68-.89.89h44.13c8,0,15.25-3.25,20.51-8.51l-125.74-125.74-35.68,35.68Z"/>
  <path class="cls-3" d="M182.81,214.19c-23.33,0-42.31-18.98-42.31-42.31,0-8.88,2.75-17.12,7.45-23.94l-67.05-67.05c-5.25,5.25-8.51,12.51-8.51,20.51v292.17l124.92-124.92,49.01,49.01,35.68-35.68-75.25-75.25c-6.81,4.69-15.06,7.45-23.94,7.45Z"/>
  <path class="cls-3" d="M398.6,443.69H101.4c-24.86,0-45.09-20.23-45.09-45.09V101.4c0-12.43,5.06-23.7,13.22-31.87L0,0v500h500s-69.53-69.53-69.53-69.53c-8.17,8.17-19.44,13.22-31.87,13.22Z"/>
  <path class="cls-2" d="M101.4,72.39h297.2c16,0,29.01,13.02,29.01,29.01v210.98l-88.01-88.01-57.62,57.62,11.37,11.37,46.25-46.25,88.01,88.01v63.48c0,8-3.25,15.25-8.51,20.51l11.36,11.36c8.17-8.17,13.22-19.44,13.22-31.87V101.4c0-24.86-20.23-45.09-45.09-45.09H101.4c-12.43,0-23.7,5.06-31.87,13.22l11.36,11.36c5.25-5.25,12.51-8.51,20.51-8.51Z"/>
  <path class="cls-1" d="M56.31,398.6c0,24.86,20.23,45.09,45.09,45.09h297.2c12.43,0,23.7-5.06,31.87-13.22l-11.36-11.36c-5.25,5.25-12.51,8.51-20.51,8.51h-44.13l.89-.89-97.68-97.68,35.68-35.68-11.37-11.37-35.68,35.68-49.01-49.01-124.92,124.92V101.4c0-8,3.25-15.25,8.51-20.51l-11.36-11.36c-8.17,8.17-13.22,19.44-13.22,31.87v297.2ZM197.31,291.39l136.22,136.22H101.4c-10.9,0-20.41-6.04-25.37-14.95l121.27-121.27Z"/>
  <path class="cls-2" d="M182.81,145.65c14.46,0,26.23,11.77,26.23,26.23,0,10.04-5.67,18.77-13.98,23.18l11.68,11.68c11.09-7.64,18.37-20.41,18.37-34.86,0-23.33-18.98-42.31-42.31-42.31-14.45,0-27.23,7.29-34.86,18.37l11.68,11.68c4.41-8.3,13.14-13.98,23.18-13.98Z"/>
  <path class="cls-2" d="M182.81,214.19c8.88,0,17.12-2.75,23.94-7.45l-11.68-11.68c-3.66,1.94-7.83,3.05-12.26,3.05-14.46,0-26.23-11.77-26.23-26.23,0-4.43,1.11-8.6,3.05-12.26l-11.68-11.68c-4.69,6.81-7.45,15.06-7.45,23.94,0,23.33,18.98,42.31,42.31,42.31Z"/>
</svg>